<svg width="281" height="345" viewBox="0 0 281 345" fill="none" xmlns="http://www.w3.org/2000/svg">
<g opacity="0.2">
<path d="M154.631 389.988L151.703 370.74C146.831 353.113 140.039 340.921 119.856 346.213C107.208 349.525 72.3124 367.5 61.6086 358.837C55.9087 354.217 60.4087 342.481 59.8327 335.413C59.4247 330.445 57.4807 324.337 54.4808 320.377C47.3649 310.957 36.1811 311.125 46.6449 294.026C42.001 293.138 33.6132 289.85 32.4732 284.738C30.9492 277.874 37.8491 270.29 35.2811 265.202C28.2613 260.066 18.9854 260.066 11.0296 255.831C-11.842 243.651 6.43367 235.851 16.0575 224.427C47.5209 187.084 35.0411 147.569 47.8209 106.193C57.4327 75.0779 77.7843 44.6825 97.644 19.219L84.9962 49.7704C83.2322 56.7303 80.8203 63.5461 79.4163 70.59C61.5966 160.12 121.583 186.256 152.447 257.198C171.683 301.43 170.315 344.905 154.631 390V389.988Z" fill="white"/>
<path d="M257.422 204.423C262.689 209.895 257.494 219.723 259.605 228.039C262.437 239.175 280.233 248.535 280.629 255.086C281.697 272.762 235.57 285.074 223.414 290.174C200.315 299.858 192.671 328.009 183.779 348.937C183.155 350.425 183.131 352.477 181.055 352.801L183.539 323.425C182.699 292.982 177.203 264.674 164.075 237.183C146.94 201.303 114.336 171.952 101.832 133.829C87.7687 90.9655 105.54 40.2064 121.056 0.0192054C123.144 -0.268789 122.184 2.75515 122.244 4.19513C123.78 46.1703 126.192 73.0498 160.763 100.085C180.815 115.769 203.783 126.989 229.642 128.513C234.79 128.813 240.73 124.889 245.23 130.817C254.146 142.564 233.374 161.98 234.994 170.98C235.678 174.748 241.978 175.744 245.038 177.808C254.17 183.976 250.594 189.952 247.078 198.531C247.39 199.959 255.25 202.167 257.422 204.423Z" fill="white"/>
</g>
</svg>
