<svg width="255" height="231" viewBox="0 0 255 231" fill="none" xmlns="http://www.w3.org/2000/svg">
<g clip-path="url(#clip0_209_1006)">
<g opacity="0.4">
<path d="M137.914 270.97L135.303 253.869C130.957 238.208 124.9 227.376 106.898 232.078C95.6177 235.02 64.4949 250.991 54.9482 243.293C49.8645 239.189 53.878 228.762 53.3643 222.482C53.0004 218.069 51.2666 212.642 48.591 209.124C42.2444 200.755 32.2696 200.904 41.6022 185.711C37.4603 184.922 29.9793 182.001 28.9626 177.46C27.6033 171.361 33.7573 164.623 31.4669 160.103C25.206 155.54 16.933 155.54 9.83719 151.776C-10.5618 140.955 5.73814 134.025 14.3215 123.876C42.3835 90.6976 31.2529 55.5898 42.6511 18.8295C51.2238 -8.81538 69.3752 -35.8205 87.0878 -58.4439L75.8074 -31.3001C74.2341 -25.1166 72.0829 -19.0609 70.8307 -12.8027C54.9375 66.7415 108.439 89.9619 135.966 152.992C153.122 192.289 151.902 230.915 137.914 270.981V270.97Z" fill="white"/>
<path d="M229.592 106.103C234.291 110.965 229.656 119.696 231.54 127.085C234.066 136.978 249.938 145.294 250.291 151.115C251.243 166.819 210.103 177.758 199.261 182.289C178.659 190.893 171.842 215.904 163.911 234.498C163.354 235.82 163.333 237.643 161.482 237.93L163.697 211.832C162.948 184.784 158.046 159.634 146.338 135.208C131.054 103.331 101.976 77.2535 90.8237 43.3824C78.2803 5.3001 94.1307 -39.7973 107.969 -75.5022C109.831 -75.758 108.975 -73.0714 109.029 -71.792C110.399 -34.4987 112.55 -10.6173 143.384 13.4027C161.268 27.3371 181.752 37.3054 204.816 38.6594C209.407 38.926 214.705 35.4397 218.719 40.7064C226.671 51.1438 208.144 68.3939 209.589 76.3899C210.199 79.7376 215.818 80.6224 218.547 82.4562C226.692 87.9361 223.503 93.2455 220.367 100.868C220.645 102.137 227.655 104.099 229.592 106.103Z" fill="white"/>
</g>
</g>
<defs>
<clipPath id="clip0_209_1006">
<rect width="255" height="231" fill="white"/>
</clipPath>
</defs>
</svg>
