<svg width="167" height="42" viewBox="0 0 167 42" fill="none" xmlns="http://www.w3.org/2000/svg">
<path d="M55.9663 26.2908C55.9663 25.6835 55.8651 25.1419 55.6627 24.6662C55.4602 24.1904 55.1262 23.7653 54.6606 23.3908C54.205 23.0061 53.5876 22.6518 52.8082 22.3279C52.0389 21.9939 51.0772 21.6649 49.9233 21.341C48.8199 21.0272 47.8229 20.683 46.9321 20.3085C46.0414 19.934 45.2771 19.5038 44.6394 19.0179C44.0118 18.532 43.531 17.9652 43.197 17.3173C42.8629 16.6594 42.6959 15.8952 42.6959 15.0246C42.6959 14.1743 42.8781 13.4 43.2425 12.7015C43.6069 12.0031 44.1181 11.4008 44.7761 10.8947C45.4441 10.3886 46.2286 9.99887 47.1295 9.72557C48.0405 9.45226 49.0376 9.31561 50.1207 9.31561C51.6694 9.31561 53.0055 9.60916 54.1291 10.1963C55.2628 10.7834 56.1384 11.578 56.7559 12.5801C57.3835 13.5721 57.6973 14.6855 57.6973 15.9205H55.8297C55.8297 14.9588 55.6019 14.1035 55.1464 13.3544C54.701 12.5953 54.0532 12.0031 53.2029 11.578C52.3628 11.1427 51.3354 10.9251 50.1207 10.9251C48.906 10.9251 47.8836 11.1123 47.0536 11.4869C46.2337 11.8513 45.6112 12.3422 45.186 12.9597C44.771 13.567 44.5635 14.2452 44.5635 14.9943C44.5635 15.5206 44.6647 16.0065 44.8672 16.4519C45.0696 16.8871 45.3986 17.2971 45.8541 17.6817C46.3197 18.0563 46.9321 18.4106 47.6913 18.7446C48.4505 19.0685 49.3868 19.3772 50.5003 19.6708C51.6745 19.9947 52.7171 20.3541 53.6281 20.7488C54.5391 21.1436 55.3084 21.5991 55.936 22.1153C56.5636 22.6215 57.0393 23.2136 57.3632 23.8918C57.6871 24.57 57.8491 25.3596 57.8491 26.2605C57.8491 27.1613 57.6568 27.9711 57.2721 28.6898C56.8976 29.3984 56.3662 30.0007 55.6778 30.4967C54.9997 30.9927 54.1949 31.3723 53.2637 31.6354C52.3425 31.8986 51.3354 32.0302 50.2421 32.0302C49.2603 32.0302 48.2835 31.9037 47.3117 31.6506C46.34 31.3976 45.4492 31.0078 44.6394 30.4815C43.8397 29.945 43.197 29.2567 42.7111 28.4165C42.2353 27.5764 41.9975 26.5743 41.9975 25.4102H43.8499C43.8499 26.3414 44.0371 27.1259 44.4117 27.7636C44.7862 28.4013 45.2822 28.9176 45.8996 29.3124C46.5272 29.7071 47.2155 29.9956 47.9646 30.1778C48.7238 30.3499 49.483 30.4359 50.2421 30.4359C51.4062 30.4359 52.4134 30.2639 53.2637 29.9197C54.1241 29.5755 54.7871 29.0947 55.2527 28.4773C55.7285 27.8497 55.9663 27.1209 55.9663 26.2908ZM63.7555 9.61928V31.7265H61.8879V9.61928H63.7555ZM77.4207 9.61928L67.8854 19.7467L63.0874 24.4688L62.9052 22.3887L66.7618 18.3802L75.0824 9.61928H77.4207ZM75.872 31.7265L66.5645 20.3692L67.688 18.8661L78.1343 31.7265H75.872ZM83.813 9.61928V31.7265H81.9454V9.61928H83.813ZM106.285 9.61928V31.7265H104.402L91.6932 12.8382V31.7265H89.8257V9.61928H91.6932L104.432 28.5076V9.61928H106.285ZM117.976 31.7265H112.965L112.996 30.1323H117.976C119.565 30.1323 120.932 29.778 122.076 29.0694C123.229 28.3507 124.12 27.3587 124.748 26.0934C125.375 24.8281 125.689 23.3604 125.689 21.6902V19.6252C125.689 18.3498 125.507 17.1959 125.143 16.1634C124.788 15.1309 124.277 14.2503 123.609 13.5215C122.941 12.7825 122.141 12.2157 121.21 11.8209C120.289 11.4261 119.256 11.2287 118.113 11.2287H112.874V9.61928H118.113C119.489 9.61928 120.75 9.85716 121.893 10.3329C123.047 10.7985 124.044 11.4767 124.884 12.3675C125.735 13.2482 126.388 14.3059 126.843 15.5409C127.309 16.7758 127.542 18.1524 127.542 19.6708V21.6902C127.542 23.2086 127.309 24.5852 126.843 25.8201C126.388 27.0551 125.735 28.1129 124.884 28.9935C124.034 29.8741 123.027 30.5523 121.863 31.0281C120.699 31.4937 119.403 31.7265 117.976 31.7265ZM113.8 9.61928V31.7265H111.933V9.61928H113.8ZM146.05 30.1323V31.7265H133.615V30.1323H146.05ZM134.177 9.61928V31.7265H132.309V9.61928H134.177ZM144.502 19.5341V21.1284H133.615V19.5341H144.502ZM145.974 9.61928V11.2287H133.615V9.61928H145.974ZM150.499 9.61928L156.724 18.9572L162.965 9.61928H165.182L157.863 20.5059L165.409 31.7265H163.177L156.724 22.085L150.271 31.7265H148.055L155.601 20.5059L148.282 9.61928H150.499Z" fill="white"/>
<path d="M16.1736 41.0276L15.8674 39.0144C15.3578 37.1707 14.6474 35.8955 12.5363 36.449C11.2134 36.7954 7.56351 38.6755 6.44395 37.7694C5.84777 37.2861 6.31844 36.0586 6.25819 35.3194C6.21552 34.7997 6.01219 34.1609 5.69841 33.7467C4.95413 32.7614 3.78436 32.779 4.87882 30.9905C4.39309 30.8976 3.51577 30.5537 3.39653 30.019C3.23713 29.3011 3.95882 28.5079 3.69023 27.9757C2.95598 27.4385 1.98578 27.4385 1.15364 26.9954C-1.23861 25.7215 0.672929 24.9057 1.67953 23.7108C4.97044 19.8049 3.66512 15.6718 5.00182 11.3442C6.00717 8.08964 8.13585 4.91043 10.2131 2.24707L8.89017 5.4426C8.70567 6.17056 8.45339 6.88347 8.30654 7.62022C6.44269 16.9846 12.717 19.7183 15.9452 27.1385C17.9571 31.7649 17.814 36.3122 16.1736 41.0289V41.0276Z" fill="white"/>
<path d="M26.9249 21.6185C27.4759 22.1908 26.9324 23.2188 27.1533 24.0886C27.4496 25.2533 29.3109 26.2323 29.3523 26.9176C29.464 28.7664 24.6393 30.0541 23.3679 30.5876C20.9518 31.6004 20.1523 34.5449 19.2223 36.7339C19.157 36.8895 19.1545 37.1041 18.9374 37.138L19.1972 34.0655C19.1093 30.8813 18.5345 27.9204 17.1614 25.045C15.3691 21.2922 11.9589 18.2222 10.6511 14.2347C9.18009 9.75139 11.0389 4.44225 12.6618 0.238867C12.8802 0.208744 12.7798 0.525033 12.786 0.675647C12.9467 5.06604 13.199 7.8775 16.815 10.7053C18.9123 12.3457 21.3145 13.5192 24.0193 13.6786C24.5578 13.71 25.1791 13.2996 25.6497 13.9196C26.5823 15.1484 24.4097 17.1792 24.5791 18.1205C24.6506 18.5146 25.3096 18.6188 25.6296 18.8347C26.5848 19.4798 26.2108 20.1048 25.843 21.0022C25.8756 21.1516 26.6977 21.3825 26.9249 21.6185Z" fill="white"/>
</svg>
